<svg width="28" height="28" viewBox="0 0 28 28" fill="none" xmlns="http://www.w3.org/2000/svg">
<g clip-path="url(#clip0_36_1873)">
<path d="M25.375 4.375H21.875V2.625C21.875 1.575 21.175 0.875 20.125 0.875H18.375C17.325 0.875 16.625 1.575 16.625 2.625V4.375H11.375V2.625C11.375 1.575 10.675 0.875 9.625 0.875H7.875C6.825 0.875 6.125 1.575 6.125 2.625V4.375H2.625C1.575 4.375 0.875 5.075 0.875 6.125V9.625H27.125V6.125C27.125 5.075 26.425 4.375 25.375 4.375Z" fill="#F77F00"/>
<path d="M25.375 3.5H22.75V2.625C22.75 1.225 21.525 0 20.125 0H18.375C16.975 0 15.75 1.225 15.75 2.625V3.5H12.25V2.625C12.25 1.225 11.025 0 9.625 0H7.875C6.475 0 5.25 1.225 5.25 2.625V3.5H2.625C1.225 3.5 0 4.725 0 6.125V9.625C0 10.15 0.35 10.5 0.875 10.5H26.25V25.375C26.25 25.9 25.9 26.25 25.375 26.25H2.625C2.1 26.25 1.75 25.9 1.75 25.375V13.125C1.75 12.6 1.4 12.25 0.875 12.25C0.35 12.25 0 12.6 0 13.125V25.375C0 26.775 1.225 28 2.625 28H25.375C26.775 28 28 26.775 28 25.375V6.125C28 4.725 26.775 3.5 25.375 3.5ZM17.5 2.625C17.5 2.1 17.85 1.75 18.375 1.75H20.125C20.65 1.75 21 2.1 21 2.625V3.5H17.5V2.625ZM7 2.625C7 2.1 7.35 1.75 7.875 1.75H9.625C10.15 1.75 10.5 2.1 10.5 2.625V3.5H7V2.625ZM26.25 8.75H1.75V6.125C1.75 5.6 2.1 5.25 2.625 5.25H25.375C25.9 5.25 26.25 5.6 26.25 6.125V8.75Z" fill="#064789"/>
<circle cx="6" cy="15" r="2" fill="#A2BDD8"/>
<circle cx="14" cy="15" r="2" fill="#A2BDD8"/>
<circle cx="22" cy="15" r="2" fill="#A2BDD8"/>
<circle cx="6" cy="22" r="2" fill="#A2BDD8"/>
<circle cx="14" cy="22" r="2" fill="#A2BDD8"/>
<circle cx="22" cy="22" r="2" fill="#A2BDD8"/>
</g>
<defs>
<clipPath id="clip0_36_1873">
<rect width="28" height="28" fill="white"/>
</clipPath>
</defs>
</svg>
