<svg width="32" height="32" viewBox="0 0 32 32" fill="none" xmlns="http://www.w3.org/2000/svg">
<path d="M18 25C21.866 25 25 21.866 25 18C25 14.134 21.866 11 18 11C14.134 11 11 14.134 11 18C11 21.866 14.134 25 18 25Z" fill="#F77F00"/>
<path d="M17.9999 30C16.2743 30.0004 14.5688 29.6286 12.9999 28.91C12.7586 28.7986 12.5714 28.5959 12.4795 28.3465C12.3876 28.0971 12.3985 27.8213 12.5099 27.58C12.6213 27.3387 12.824 27.1514 13.0734 27.0595C13.3229 26.9677 13.5986 26.9786 13.8399 27.09C15.5813 27.8878 17.5151 28.1687 19.4115 27.8993C21.3079 27.63 23.087 26.8216 24.5373 25.5704C25.9876 24.3192 27.048 22.6778 27.5925 20.8415C28.137 19.0051 28.1427 17.0509 27.6088 15.2114C27.0749 13.3719 26.024 11.7244 24.5809 10.4649C23.1379 9.20535 21.3634 8.38674 19.4687 8.10641C17.5739 7.82608 15.6384 8.09582 13.8925 8.88356C12.1466 9.6713 10.6636 10.9439 9.61992 12.55C9.54769 12.6603 9.45445 12.7553 9.3455 12.8296C9.23656 12.9039 9.11405 12.956 8.98498 12.9829C8.85591 13.0098 8.72279 13.0111 8.59324 12.9865C8.46369 12.962 8.34023 12.9122 8.22992 12.84C8.11961 12.7678 8.02461 12.6745 7.95033 12.5656C7.87606 12.4566 7.82397 12.3341 7.79704 12.2051C7.77011 12.076 7.76887 11.9429 7.79339 11.8133C7.8179 11.6838 7.86769 11.5603 7.93992 11.45C9.07463 9.70813 10.6424 8.29093 12.4896 7.33724C14.3368 6.38355 16.4001 5.9261 18.4773 6.00971C20.5544 6.09332 22.5743 6.71511 24.3389 7.81418C26.1034 8.91324 27.5522 10.4519 28.5433 12.2793C29.5343 14.1067 30.0336 16.1603 29.9923 18.2387C29.9509 20.3172 29.3703 22.3492 28.3074 24.1358C27.2444 25.9224 25.7356 27.4021 23.9287 28.4301C22.1218 29.4581 20.0788 29.9991 17.9999 30Z" fill="#064789"/>
<path d="M19 2H17C16.2044 2 15.4413 2.31607 14.8787 2.87868C14.3161 3.44129 14 4.20435 14 5V7C14 7.26522 14.1054 7.51957 14.2929 7.70711C14.4804 7.89464 14.7348 8 15 8H21C21.2652 8 21.5196 7.89464 21.7071 7.70711C21.8946 7.51957 22 7.26522 22 7V5C22 4.20435 21.6839 3.44129 21.1213 2.87868C20.5587 2.31607 19.7956 2 19 2ZM23.78 13.38C23.615 13.174 23.3752 13.0415 23.113 13.0115C22.8507 12.9816 22.5872 13.0565 22.38 13.22L19.57 15.46C19.1019 15.1586 18.5567 14.9989 18 15C17.4067 15 16.8266 15.1759 16.3333 15.5056C15.8399 15.8352 15.4554 16.3038 15.2284 16.8519C15.0013 17.4001 14.9419 18.0033 15.0576 18.5853C15.1734 19.1672 15.4591 19.7018 15.8787 20.1213C16.2982 20.5409 16.8328 20.8266 17.4147 20.9424C17.9967 21.0581 18.5999 20.9987 19.1481 20.7716C19.6962 20.5446 20.1648 20.1601 20.4944 19.6667C20.8241 19.1734 21 18.5933 21 18C20.9987 17.6587 20.9378 17.3203 20.82 17L23.62 14.76C23.8203 14.5955 23.9489 14.3598 23.9788 14.1023C24.0086 13.8449 23.9373 13.5859 23.78 13.38ZM11 15H5C4.73478 15 4.48043 15.1054 4.29289 15.2929C4.10536 15.4804 4 15.7348 4 16C4 16.2652 4.10536 16.5196 4.29289 16.7071C4.48043 16.8946 4.73478 17 5 17H11C11.2652 17 11.5196 16.8946 11.7071 16.7071C11.8946 16.5196 12 16.2652 12 16C12 15.7348 11.8946 15.4804 11.7071 15.2929C11.5196 15.1054 11.2652 15 11 15ZM11 19H3C2.73478 19 2.48043 19.1054 2.29289 19.2929C2.10536 19.4804 2 19.7348 2 20C2 20.2652 2.10536 20.5196 2.29289 20.7071C2.48043 20.8946 2.73478 21 3 21H11C11.2652 21 11.5196 20.8946 11.7071 20.7071C11.8946 20.5196 12 20.2652 12 20C12 19.7348 11.8946 19.4804 11.7071 19.2929C11.5196 19.1054 11.2652 19 11 19ZM11 23H5C4.73478 23 4.48043 23.1054 4.29289 23.2929C4.10536 23.4804 4 23.7348 4 24C4 24.2652 4.10536 24.5196 4.29289 24.7071C4.48043 24.8946 4.73478 25 5 25H11C11.2652 25 11.5196 24.8946 11.7071 24.7071C11.8946 24.5196 12 24.2652 12 24C12 23.7348 11.8946 23.4804 11.7071 23.2929C11.5196 23.1054 11.2652 23 11 23Z" fill="#064789"/>
</svg>
